<?xml version="1.0" standalone="no"?>
<!DOCTYPE svg PUBLIC "-//W3C//DTD SVG 20010904//EN"
 "http://www.w3.org/TR/2001/REC-SVG-20010904/DTD/svg10.dtd">
<svg version="1.0" xmlns="http://www.w3.org/2000/svg"
 width="1024.000000pt" height="1024.000000pt" viewBox="0 0 1024.000000 1024.000000"
 preserveAspectRatio="xMidYMid meet">
<metadata>
Created by potrace 1.14, written by Peter Selinger 2001-2017
</metadata>
<g transform="translate(0.000000,1024.000000) scale(0.100000,-0.100000)"
fill="#000000" stroke="none">
<path d="M0 5120 l0 -5120 5120 0 5120 0 0 5120 0 5120 -5120 0 -5120 0 0
-5120z m1597 5004 c-9 -9 -28 6 -21 18 4 6 10 6 17 -1 6 -6 8 -13 4 -17z
m4593 -274 c0 -18 -29 -43 -44 -37 -21 8 -21 41 1 62 16 16 17 16 30 -1 7 -10
13 -21 13 -24z m1113 -35 c-6 -16 -16 -19 -26 -8 -9 8 13 34 24 28 4 -3 6 -12
2 -20z m1107 -15 c0 -13 -7 -20 -20 -20 -13 0 -20 7 -20 20 0 13 7 20 20 20
13 0 20 -7 20 -20z m-2713 -34 c-8 -19 -37 -21 -37 -3 0 7 5 18 12 25 15 15
33 -1 25 -22z m-4449 -92 c4 -29 -23 -51 -43 -34 -18 15 -19 32 -3 48 18 18
42 10 46 -14z m2048 -661 c-11 -11 -19 6 -11 24 8 17 8 17 12 0 3 -10 2 -21
-1 -24z m3834 -525 c205 -43 335 -93 530 -205 359 -207 670 -581 780 -940 12
-37 25 -78 30 -91 14 -34 52 -184 47 -188 -2 -2 -13 32 -25 75 -27 100 -101
300 -152 409 -103 220 -365 503 -620 670 -187 123 -421 219 -630 257 -133 25
-503 30 -2010 30 -1050 -1 -1407 -4 -1475 -14 -106 -14 -363 -88 -473 -135
-191 -82 -341 -175 -473 -293 -253 -228 -414 -483 -524 -833 -20 -63 -33 -99
-30 -80 19 127 114 372 192 502 116 193 318 416 478 530 239 169 586 302 865
331 19 2 784 3 1700 3 l1665 -2 125 -26z m2276 -275 c-11 -11 -19 6 -11 24 8
17 8 17 12 0 3 -10 2 -21 -1 -24z m-3246 -52 c0 -5 -6 -14 -14 -20 -16 -13
-32 2 -21 19 8 12 35 13 35 1z m-2007 -47 c8 -8 -3 -34 -14 -34 -5 0 -9 9 -9
20 0 19 11 26 23 14z m567 -175 c0 -12 -7 -19 -20 -19 -19 0 -28 28 -14 43 11
11 34 -5 34 -24z m-1514 -54 c4 -8 12 -15 20 -15 24 0 46 -46 39 -80 -8 -38
-36 -57 -95 -65 -48 -6 -58 -2 -76 30 -15 27 9 109 38 130 28 19 67 19 74 0z
m2354 -227 c0 -4 -10 -13 -22 -19 -18 -10 -24 -8 -35 7 -16 22 -17 46 0 63 10
10 16 6 34 -16 13 -15 23 -31 23 -35z m-1100 -127 c15 -30 12 -56 -9 -75 -25
-23 -59 -13 -67 20 -8 32 1 53 28 64 33 13 36 12 48 -9z m-650 -61 c0 -21 -24
-28 -35 -10 -8 14 3 30 21 30 8 0 14 -9 14 -20z m-2752 -247 c4 -29 -30 -49
-48 -28 -6 8 -9 23 -5 35 9 28 49 23 53 -7z m6867 -68 c118 -18 328 -67 403
-95 63 -24 125 -55 167 -84 16 -11 32 -22 34 -23 2 -2 11 -33 19 -70 11 -54
15 -187 19 -635 3 -313 2 -568 -1 -568 -4 0 -39 24 -79 54 -140 105 -312 172
-657 257 -39 10 -125 14 -295 14 -225 -1 -247 -3 -350 -28 -302 -73 -457 -124
-618 -202 -87 -43 -95 -49 -86 -67 8 -14 16 -17 32 -12 12 4 31 8 43 8 17 0
20 6 17 33 -2 30 -1 32 13 18 19 -19 31 -20 15 -1 -9 11 -8 15 5 20 10 4 21 2
24 -5 4 -6 10 -1 13 13 6 22 7 22 21 3 15 -20 15 -20 11 3 -2 12 -1 20 4 18 4
-3 13 -1 21 4 9 5 19 5 27 -2 10 -8 13 -6 13 8 0 17 1 17 15 -2 8 -11 14 -14
15 -6 0 9 12 11 40 8 27 -3 38 -1 34 6 -5 7 -1 8 11 0 14 -7 23 -4 40 14 17
19 24 21 35 11 10 -9 11 -9 5 2 -6 10 -2 12 14 6 16 -5 21 -2 21 12 0 10 4 14
8 8 13 -18 52 -18 52 0 0 11 5 15 15 11 8 -3 15 0 16 7 0 9 2 9 6 0 6 -16 33
-17 33 -2 0 5 -4 8 -8 5 -5 -3 -9 1 -9 9 0 18 3 18 28 5 13 -8 19 -7 19 0 0 7
8 9 22 4 20 -6 21 -5 9 10 -8 9 -11 19 -7 23 3 3 6 1 6 -5 0 -6 9 -10 19 -9
11 0 17 5 15 9 -3 4 -2 9 3 9 4 1 19 3 33 5 52 6 70 10 76 16 3 4 13 4 21 1
12 -5 12 -7 1 -14 -9 -6 -9 -9 -1 -9 6 0 15 5 18 10 9 14 55 12 55 -2 0 -9 4
-8 10 2 5 8 10 10 10 4 0 -7 8 -11 18 -10 11 1 17 -6 16 -21 0 -12 3 -20 8
-17 4 3 8 13 9 22 0 11 3 12 6 5 2 -7 13 -13 23 -13 10 0 20 -4 22 -9 5 -14
78 -23 78 -10 0 5 5 7 11 3 8 -4 5 -11 -9 -18 -18 -10 -19 -12 -4 -26 14 -13
15 -12 10 2 -5 11 0 16 18 16 16 0 26 -7 30 -22 3 -14 13 -21 29 -21 14 0 25
3 25 6 0 3 11 11 23 16 18 9 24 8 24 -2 0 -7 -5 -11 -12 -9 -6 3 -11 -5 -12
-16 -1 -11 4 -20 10 -20 7 0 6 -4 -3 -11 -12 -9 -12 -10 4 -5 10 4 26 1 34 -6
13 -11 15 -10 9 5 -4 12 -1 17 9 17 12 0 15 -6 10 -24 -9 -35 10 -42 27 -11
l13 26 15 -28 c7 -15 20 -32 27 -36 11 -7 11 -11 0 -24 -11 -14 -11 -15 8 -5
12 6 24 9 27 6 3 -3 8 0 13 7 4 8 3 10 -4 5 -8 -5 -10 -1 -5 10 4 11 8 13 11
6 2 -7 9 -9 15 -5 6 4 8 0 4 -10 -3 -9 -1 -19 4 -23 6 -3 19 -19 29 -36 14
-23 19 -26 24 -13 3 9 2 13 -4 10 -6 -3 -10 -1 -10 4 0 6 9 11 20 11 23 0 26
-10 8 -29 -11 -11 -9 -11 9 -2 12 6 28 8 36 5 8 -3 23 3 33 13 16 16 17 16 12
1 -4 -9 -1 -22 7 -28 8 -6 11 -18 8 -27 -5 -13 -3 -13 15 -4 25 13 55 16 34 2
-10 -6 -9 -11 4 -22 10 -8 15 -9 11 -2 -6 9 1 11 22 8 35 -4 71 -22 71 -35 0
-6 3 -10 8 -9 20 3 53 -15 48 -27 -3 -8 8 -18 29 -25 18 -7 38 -22 44 -33 6
-14 10 -16 10 -6 1 13 2 13 11 0 7 -11 10 -11 10 -2 0 7 4 11 10 7 5 -3 7 -11
4 -18 -3 -8 9 -13 33 -14 28 -2 34 0 23 7 -20 13 -4 13 21 0 20 -11 26 -68 12
-118 -5 -22 -9 -23 -52 -16 -25 4 -57 8 -71 8 -14 1 -31 6 -38 10 -7 4 -20 5
-28 2 -9 -3 -12 -2 -9 4 4 6 -5 10 -22 9 -15 -1 -55 7 -88 16 -110 32 -139 35
-325 41 -137 5 -224 2 -335 -9 -82 -9 -197 -19 -255 -22 -114 -6 -132 -8 -260
-32 -172 -32 -256 -69 -555 -251 -104 -63 -228 -137 -275 -165 -124 -74 -228
-144 -239 -164 -6 -10 -11 -14 -11 -9 0 11 -30 -14 -30 -26 0 -5 5 -6 11 -2
22 13 -10 -34 -41 -59 -16 -14 -30 -30 -30 -35 0 -11 -69 -72 -81 -72 -5 0
-10 -7 -10 -15 -1 -8 -3 -19 -4 -25 -1 -5 -3 -13 -4 -16 0 -4 -8 0 -18 7 -15
13 -16 10 -9 -26 5 -27 4 -35 -3 -25 -8 12 -12 10 -19 -11 -14 -36 -62 -90
-77 -87 -7 2 -24 -8 -39 -22 -44 -43 -60 -55 -167 -127 -122 -82 -186 -119
-195 -111 -3 4 -45 -25 -92 -64 -159 -127 -479 -301 -707 -383 -105 -38 -276
-84 -435 -116 -143 -30 -481 -37 -660 -14 -229 29 -449 81 -610 145 -237 95
-416 192 -628 342 -116 82 -117 84 -115 153 0 11 4 353 8 760 4 407 9 742 11
744 2 2 50 -41 107 -95 290 -279 663 -474 1057 -555 96 -20 144 -24 290 -24
303 1 553 62 855 209 238 115 330 177 645 435 50 41 126 115 169 165 86 101
221 228 351 331 47 37 132 114 190 169 97 94 258 220 468 368 46 32 81 54 77
48 -3 -5 -34 -29 -68 -51 -34 -23 -87 -63 -117 -89 -30 -26 -74 -59 -96 -74
-26 -17 -41 -34 -39 -44 1 -9 0 -11 -2 -4 -4 10 -8 10 -19 1 -17 -14 -19 -33
-2 -23 7 4 8 3 4 -5 -6 -9 -11 -9 -22 0 -11 9 -16 6 -25 -15 -7 -14 -16 -23
-20 -20 -5 3 -9 0 -9 -5 0 -6 -6 -10 -12 -9 -7 2 -12 -3 -10 -10 1 -8 -2 -11
-7 -8 -13 8 -34 -21 -25 -35 5 -9 2 -10 -10 -6 -14 5 -17 3 -12 -8 3 -10 -1
-15 -12 -15 -25 0 -53 -35 -39 -49 8 -8 4 -11 -14 -11 -24 0 -66 -37 -61 -53
1 -5 -1 -6 -6 -3 -10 6 -52 -38 -52 -53 0 -5 -4 -11 -9 -13 -5 -1 -12 -16 -15
-33 -5 -24 -4 -26 3 -10 8 16 10 17 10 3 1 -25 -11 -51 -18 -39 -4 6 -12 2
-20 -11 -11 -18 -11 -20 3 -15 9 4 16 1 16 -5 0 -7 6 -3 14 8 8 10 18 16 22
11 4 -4 2 -7 -5 -7 -7 0 -10 -4 -6 -9 3 -5 -34 -35 -82 -67 -98 -64 -163 -115
-271 -212 -87 -78 -109 -98 -185 -166 -31 -28 -73 -66 -93 -84 -20 -17 -41
-29 -47 -25 -7 3 -9 3 -5 -2 8 -8 -11 -50 -19 -42 -6 7 -43 -30 -43 -43 0 -5
-7 -7 -15 -4 -10 4 -15 0 -15 -14 0 -12 -5 -24 -12 -28 -8 -5 -9 -2 -4 11 6
16 4 16 -11 4 -37 -30 -53 -50 -48 -59 3 -6 -1 -7 -10 -4 -11 5 -18 0 -22 -15
-3 -11 -9 -18 -13 -16 -5 3 -17 -8 -26 -24 -14 -23 -21 -28 -31 -19 -17 14
-18 -13 0 -31 10 -10 9 -11 -5 -6 -11 4 -18 2 -18 -4 0 -6 -7 -11 -16 -11 -10
0 -14 -6 -11 -14 4 -9 -3 -16 -20 -21 -17 -4 -23 -11 -19 -21 4 -12 2 -12 -14
-4 -14 7 -20 7 -20 0 0 -5 4 -10 8 -10 4 0 8 -13 7 -30 0 -16 -4 -30 -9 -30
-4 0 -6 9 -3 19 3 12 -1 22 -9 25 -9 4 -14 -2 -14 -16 0 -21 0 -21 -16 -2 -8
10 -13 14 -10 7 4 -6 -2 -16 -11 -22 -15 -9 -13 -10 14 -11 17 0 34 -4 37 -9
4 -5 -2 -7 -13 -4 -11 3 -21 -2 -24 -11 -4 -9 -12 -16 -18 -16 -9 0 -8 4 0 14
10 12 9 14 -6 10 -10 -3 -19 -14 -19 -25 0 -13 5 -17 17 -14 10 3 21 0 25 -6
4 -8 3 -9 -4 -5 -7 4 -12 3 -12 -3 0 -5 6 -11 13 -14 6 -3 -7 -2 -30 0 -27 4
-43 2 -43 -5 0 -6 12 -9 28 -7 15 2 21 2 15 -1 -23 -10 -14 -26 10 -19 21 7
21 7 2 -8 -10 -8 -26 -13 -35 -10 -13 4 -13 4 0 -6 8 -6 11 -11 6 -11 -5 0 -3
-7 4 -15 10 -12 10 -15 -1 -15 -9 -1 -5 -8 10 -20 20 -18 22 -22 10 -37 -8 -9
-9 -14 -3 -10 6 3 20 -2 31 -12 12 -11 25 -16 32 -11 9 5 4 9 -13 14 -25 6
-31 24 -11 38 6 4 2 8 -7 8 -10 0 -18 4 -18 9 0 5 8 7 19 4 19 -5 38 13 26 25
-3 3 -10 0 -15 -8 -5 -8 -12 -11 -17 -7 -9 9 17 28 32 24 17 -6 18 -38 1 -56
-14 -15 -13 -17 4 -17 11 0 20 6 20 13 0 7 5 13 10 13 6 0 10 -7 10 -15 0 -8
9 -15 20 -15 11 0 20 5 20 11 0 6 -6 9 -13 6 -15 -6 -17 27 -2 40 4 5 5 3 1
-4 -3 -6 -2 -14 4 -18 5 -3 10 0 10 8 0 8 8 21 18 28 15 13 16 12 3 -3 -12
-16 -11 -18 5 -19 17 -1 17 -2 1 -6 -9 -2 -15 -8 -12 -13 8 -13 35 0 35 16 0
8 5 14 11 14 5 0 8 -4 4 -9 -3 -6 3 -8 15 -6 11 2 22 0 25 -6 4 -5 -2 -9 -12
-10 -16 0 -16 -1 2 -9 19 -8 19 -9 -2 -9 -12 -1 -24 5 -26 12 -4 8 -8 9 -14 1
-4 -6 -15 -14 -23 -17 -11 -4 -9 -6 6 -6 11 -1 25 -6 32 -13 14 -14 44 -20 36
-7 -3 5 -9 7 -14 4 -5 -3 -11 -1 -15 5 -3 5 3 10 15 10 11 0 23 7 26 15 4 8
10 15 15 15 5 0 9 -7 9 -15 0 -25 19 -17 26 11 4 14 12 23 18 21 45 -19 46
-19 40 -4 -4 11 2 14 24 12 25 -2 29 1 26 21 -1 13 2 24 8 24 6 0 8 -7 4 -15
-8 -21 11 -19 23 3 6 9 11 11 11 5 0 -10 6 -10 25 -1 14 6 25 15 25 20 0 5 4
7 9 4 4 -3 16 3 26 14 10 11 22 17 26 14 5 -3 9 -1 9 5 0 5 17 15 38 21 20 7
42 19 49 27 6 8 16 12 22 8 6 -3 11 -2 11 3 0 6 7 13 16 16 8 3 12 2 9 -4 -3
-6 -2 -10 3 -10 13 0 24 29 15 43 -3 7 4 3 17 -8 20 -17 23 -18 17 -3 -3 10
-3 17 1 16 10 -2 72 36 72 44 0 4 6 5 13 2 8 -3 20 2 27 11 7 8 18 15 25 15 8
0 33 19 57 43 24 24 57 49 74 56 33 13 66 45 77 74 3 9 13 17 22 17 8 0 15 5
15 11 0 6 7 9 15 5 8 -3 15 -1 15 4 0 5 6 7 14 4 11 -4 13 0 9 18 -3 16 -2 19
5 10 7 -11 10 -9 15 7 3 12 11 20 19 19 8 -2 12 4 10 16 -3 14 1 17 14 12 10
-4 15 -4 12 0 -6 6 -1 14 28 47 6 7 9 18 6 25 -3 11 1 13 46 16 17 1 42 19 42
30 0 9 -24 2 -32 -9 -5 -6 -8 -3 -8 6 0 11 10 15 40 15 22 0 40 -5 40 -11 0
-5 5 -2 11 8 8 14 8 22 0 30 -13 13 -15 30 -2 22 5 -3 13 0 16 6 4 5 14 8 22
4 14 -5 14 -3 2 12 -13 15 -12 16 9 10 18 -4 22 -2 18 9 -4 9 2 14 17 15 12 0
16 3 10 6 -7 2 -13 9 -13 14 0 6 5 7 12 3 8 -5 9 -2 5 9 -4 11 -1 17 9 17 8 0
13 -4 10 -9 -4 -5 3 -7 14 -4 19 5 19 6 3 18 -10 7 -22 11 -28 8 -5 -3 -5 0 2
7 10 11 15 11 29 -1 16 -12 17 -12 11 3 -4 12 2 19 21 27 15 5 21 10 14 10 -7
1 -10 6 -7 11 4 6 12 7 18 3 7 -4 5 2 -3 12 -9 11 -10 16 -2 11 6 -4 12 -3 12
3 0 6 8 8 18 4 16 -6 16 -5 -1 14 -11 13 -14 23 -8 27 5 4 12 2 16 -4 3 -5 11
-10 16 -10 6 0 8 4 5 8 -3 5 1 9 9 10 8 1 21 3 29 4 7 1 11 9 9 19 -3 9 0 26
7 36 11 17 11 17 6 -2 -5 -17 -4 -17 12 4 11 13 24 21 31 17 6 -4 14 0 17 8 3
9 14 16 23 17 10 0 11 2 4 6 -7 2 -13 9 -13 14 0 6 5 7 10 4 6 -3 10 -2 10 3
0 5 10 8 23 7 17 -2 23 3 25 18 1 17 -1 19 -8 7 -7 -11 -9 -10 -7 7 0 12 5 19
9 17 4 -3 8 0 8 6 0 6 4 9 9 6 5 -4 12 0 14 6 4 10 7 10 15 0 7 -11 10 -9 14
6 5 16 1 20 -21 18 -14 0 -29 -5 -33 -11 -5 -6 -8 -6 -8 1 0 6 7 17 15 24 8 7
12 17 9 24 -3 6 2 2 10 -8 9 -11 16 -14 16 -8 0 7 13 12 29 12 17 0 32 4 35 9
3 5 -8 7 -24 6 -28 -2 -45 13 -17 17 36 4 43 4 53 -4 8 -6 11 1 9 22 -3 34 10
40 20 9 9 -27 17 -18 21 23 6 45 14 68 25 68 12 0 12 -27 -1 -33 -6 -3 -5 -4
2 -3 7 2 13 13 12 25 0 11 3 21 7 21 15 0 3 36 -16 48 -13 9 -15 12 -3 8 10
-3 18 2 21 15 5 20 37 17 37 -3 0 -6 -6 -5 -15 2 -12 10 -15 10 -15 -1 0 -25
12 -59 20 -59 5 0 6 10 3 23 -5 22 -5 22 10 2 15 -19 16 -19 12 13 -4 28 -2
32 10 22 10 -9 13 -8 11 5 -1 9 -8 20 -14 24 -7 4 -4 11 9 20 13 7 18 8 14 1
-5 -7 2 -9 22 -4 15 4 31 9 36 11 11 7 -2 23 -19 23 -9 0 -12 -5 -8 -11 4 -8
0 -8 -15 0 -25 14 -28 26 -5 17 12 -4 15 -2 10 9 -4 13 -2 14 14 5 16 -8 20
-8 18 2 -2 7 3 12 10 10 8 -1 11 2 8 7 -3 5 -16 7 -29 5 -15 -4 -13 -1 8 9 17
8 33 12 37 10 4 -2 16 10 26 27 16 26 21 28 31 16 7 -9 11 -21 8 -28 -4 -8 -6
-7 -6 5 -1 9 -6 17 -12 17 -6 0 -8 -7 -5 -16 3 -8 2 -13 -3 -10 -4 3 -16 -3
-26 -14 -10 -11 -15 -20 -10 -20 4 0 2 -6 -4 -14 -9 -11 -8 -15 4 -20 9 -3 14
-2 11 3 -3 5 1 12 10 15 9 4 14 13 10 21 -3 8 -1 15 4 15 6 0 11 -10 11 -22
l2 -23 4 23 c3 15 10 22 19 18 8 -3 14 -1 14 5 0 6 5 7 12 3 7 -4 8 -3 4 5 -4
6 -11 9 -15 7 -4 -3 -8 2 -8 10 0 8 6 13 14 10 7 -3 13 -1 13 4 0 5 7 6 17 3
11 -4 14 -3 9 5 -5 8 -2 10 8 6 9 -3 14 -9 12 -13 -3 -4 -1 -13 5 -21 6 -11 8
-5 5 18 -4 35 0 38 28 17 22 -17 56 -1 56 28 0 22 26 33 44 18 7 -6 16 -8 19
-4 4 3 7 2 7 -4 0 -6 6 -13 13 -16 8 -3 14 1 14 9 0 7 -3 11 -6 9 -4 -2 -15 4
-26 12 -15 12 -16 14 -3 10 9 -3 22 1 30 11 9 11 10 14 1 8 -7 -4 -13 -2 -13
3 0 6 5 11 10 11 6 0 10 8 11 18 0 14 2 14 8 -3 5 -11 7 -23 5 -26 -2 -4 8
-15 22 -24 l27 -17 -17 23 c-22 32 -21 34 19 36 33 3 47 -9 25 -20 -6 -3 -5
-4 2 -3 7 2 13 10 13 19 0 23 15 34 16 11 0 -10 3 -13 6 -6 6 15 33 16 33 0 0
-21 21 7 23 31 1 19 12 25 45 24 6 -1 12 4 12 10 0 5 9 2 20 -8 11 -10 23 -15
27 -12 3 4 2 7 -3 7 -15 0 -11 53 5 58 10 3 13 -2 9 -22 -3 -15 -1 -29 5 -33
6 -3 7 -1 3 5 -4 7 -3 12 3 12 5 0 12 -8 14 -17 3 -10 4 -6 4 9 -1 15 -4 25
-7 23 -4 -2 -7 2 -7 9 0 7 5 13 11 13 49 -1 76 6 97 24 19 16 21 22 9 29 -8 5
-12 12 -8 15 12 12 39 -27 33 -49 -5 -15 -4 -17 3 -7 9 12 11 12 15 0 2 -8 2
-4 0 9 -3 17 1 22 19 22 14 0 18 3 12 8 -9 5 -8 11 3 21 12 11 14 11 12 0 -5
-37 1 -42 39 -36 25 5 32 3 22 -3 -13 -9 -13 -10 0 -10 13 0 13 -2 1 -9 -9 -6
-22 -6 -33 0 -12 6 -18 6 -18 0 0 -6 9 -15 20 -21 10 -6 18 -16 16 -23 -1 -6
-1 -8 2 -4 2 4 10 3 18 -4 8 -7 14 -7 14 -1 0 5 -7 12 -15 16 -8 3 -15 10 -15
17 0 6 6 9 14 6 8 -3 17 1 20 9 8 20 26 17 20 -3 -5 -15 -4 -15 4 -3 6 8 8 18
6 22 -7 11 8 10 26 -2 12 -7 12 -12 -4 -29 -17 -19 -17 -21 -3 -21 10 0 17 7
17 15 0 8 4 15 8 15 5 0 14 12 20 26 7 14 17 22 22 19 6 -3 10 1 10 9 0 9 5
16 10 16 7 0 7 -6 0 -19 -13 -25 -13 -34 1 -25 7 4 10 1 7 -7 -3 -8 -11 -13
-17 -11 -7 1 -10 -2 -6 -7 9 -15 35 -1 35 19 0 10 6 21 13 24 10 5 10 7 0 12
-7 3 -13 12 -13 20 0 10 9 5 24 -13 18 -20 21 -31 14 -40 -8 -10 -6 -13 6 -13
16 0 16 -2 2 -15 -8 -8 -21 -15 -28 -15 -10 0 -10 -2 1 -9 10 -7 20 -2 33 14
22 28 23 39 3 55 -11 9 -12 15 -5 20 17 11 21 110 4 110 -7 0 -11 6 -8 13 3 8
11 14 19 14 8 0 12 -4 9 -9 -3 -4 -2 -13 2 -20 5 -8 10 -6 15 8 7 17 8 17 8 2
1 -19 21 -26 21 -8 0 6 7 10 16 10 11 0 14 5 10 16 -3 9 -6 22 -6 30 0 8 -10
14 -25 14 -22 0 -24 2 -13 14 7 8 15 10 16 5 8 -21 22 -7 24 24 1 23 3 18 7
-18 5 -42 9 -50 26 -48 11 1 14 0 7 -3 -6 -3 -10 -10 -6 -15 3 -5 0 -9 -6 -9
-6 0 -10 -8 -8 -17 2 -11 -2 -17 -11 -15 -8 2 -11 -3 -8 -13 4 -9 1 -15 -8
-15 -19 0 -19 -10 1 -38 13 -19 13 -22 0 -22 -8 0 -16 6 -19 13 -3 8 -4 8 -3
-2 1 -7 11 -20 24 -29 20 -13 22 -13 16 2 -3 9 -2 16 4 16 10 0 26 -29 23 -43
-1 -5 3 -6 9 -2 5 3 10 16 10 28 0 18 -2 19 -10 7 -8 -13 -10 -13 -10 2 0 9 8
19 18 23 20 6 49 76 38 93 -6 10 -46 5 -46 -7 0 -3 5 -13 11 -21 9 -13 10 -12
5 3 -7 21 10 23 18 2 3 -9 -1 -18 -9 -21 -8 -4 -12 -11 -9 -16 4 -6 1 -9 -6
-6 -14 4 -21 42 -13 71 5 19 38 23 49 6 4 -8 9 -7 16 2 8 11 9 10 5 -3 -3 -9
0 -19 7 -21 10 -4 12 1 9 14 -3 11 0 19 6 19 7 0 9 -4 6 -10 -3 -5 -1 -10 4
-10 6 0 11 7 11 15 0 8 -6 15 -13 15 -9 0 -12 10 -9 31 4 28 2 30 -17 24 -15
-5 -21 -2 -21 9 0 9 6 16 13 17 10 0 10 2 0 6 -7 2 -13 11 -13 19 0 8 -4 14
-10 14 -5 0 -10 -12 -10 -26 0 -14 -4 -23 -10 -19 -5 3 -10 21 -10 38 0 18 4
28 8 22 7 -10 42 -17 42 -8 0 13 -31 33 -41 27 -8 -4 -9 -3 -5 4 5 8 0 12 -13
12 -15 0 -21 -7 -22 -22 -1 -22 -1 -22 -8 1 -9 33 -43 42 -163 44 -54 1 -98 5
-98 8 0 14 -30 4 -30 -10 0 -10 -3 -12 -8 -5 -12 18 -39 23 -52 11 -10 -9 -11
-9 -6 1 6 10 -22 12 -146 9 -84 -1 -164 -6 -178 -10 -14 -4 -44 -9 -67 -12
-23 -2 -50 -8 -60 -13 -10 -6 -40 -15 -68 -22 -27 -6 -57 -13 -65 -15 -8 -2
-30 -9 -49 -14 -51 -15 -49 -7 3 13 101 39 284 78 401 86 155 11 393 4 520
-15z m-5828 -77 c-3 -7 -5 -2 -5 12 0 14 2 19 5 13 2 -7 2 -19 0 -25z m5880
-10 c-3 -7 -5 -2 -5 12 0 14 2 19 5 13 2 -7 2 -19 0 -25z m55 -73 c2 -12 -4
-21 -14 -23 -10 -2 -18 1 -18 7 0 6 7 7 17 4 11 -4 14 -3 9 5 -4 7 -14 12 -22
12 -8 0 -14 5 -14 11 0 6 7 8 16 5 10 -4 14 -2 11 6 -2 7 -10 12 -16 11 -6 -2
-11 2 -11 7 0 6 5 10 10 10 6 0 11 12 11 28 1 25 12 -17 21 -83z m-95 69 c-3
-3 -12 -4 -19 -1 -8 3 -5 6 6 6 11 1 17 -2 13 -5z m-1012 -24 c-3 -5 -14 -10
-23 -9 -14 0 -13 2 3 9 27 11 27 11 20 0z m-55 -20 c-8 -5 -19 -10 -25 -10 -5
0 -3 5 5 10 8 5 20 10 25 10 6 0 3 -5 -5 -10z m-3550 -36 c0 -16 -26 -19 -35
-4 -3 6 -4 14 0 20 8 13 35 1 35 -16z m3456 -4 c-73 -37 -208 -91 -213 -87 -2
2 32 20 74 40 144 67 255 104 139 47z m1284 20 c0 -5 9 -10 21 -10 25 0 23
-32 -3 -36 -11 -1 -15 3 -11 12 3 8 1 14 -5 14 -5 0 -12 7 -16 15 -3 8 -1 15
4 15 6 0 10 -4 10 -10z m-693 -15 c0 -8 -4 -12 -9 -9 -5 3 -6 10 -3 15 9 13
12 11 12 -6z m266 0 c-3 -9 -8 -14 -10 -11 -3 3 -2 9 2 15 9 16 15 13 8 -4z
m-298 -5 c3 -5 1 -10 -4 -10 -6 0 -11 5 -11 10 0 6 2 10 4 10 3 0 8 -4 11 -10z
m327 3 c-6 -2 -9 -10 -6 -15 4 -7 2 -8 -5 -4 -13 9 -5 26 12 25 9 0 8 -2 -1
-6z m202 -8 c-4 -8 -11 -12 -16 -9 -6 4 -5 10 3 15 19 12 19 11 13 -6z m-147
-11 c-3 -3 -12 -4 -19 -1 -8 3 -5 6 6 6 11 1 17 -2 13 -5z m-82 -14 c3 -5 1
-10 -4 -10 -6 0 -11 5 -11 10 0 6 2 10 4 10 3 0 8 -4 11 -10z m190 0 c3 -5 1
-10 -4 -10 -6 0 -11 5 -11 10 0 6 2 10 4 10 3 0 8 -4 11 -10z m-168 -32 c-3
-8 -6 -5 -6 6 -1 11 2 17 5 13 3 -3 4 -12 1 -19z m58 -6 c-3 -8 0 -21 6 -28 8
-10 8 -14 0 -14 -6 0 -13 11 -17 25 -3 14 -9 23 -13 20 -4 -2 -8 2 -8 9 0 8 8
11 19 8 12 -3 17 -10 13 -20z m39 3 c3 -8 1 -15 -4 -15 -6 0 -10 7 -10 15 0 8
2 15 4 15 2 0 6 -7 10 -15z m-280 -17 c-3 -4 -9 -8 -15 -8 -5 0 -9 4 -9 8 0 5
7 9 15 9 8 0 12 -4 9 -9z m61 2 c3 -5 1 -10 -4 -10 -6 0 -11 5 -11 10 0 6 2
10 4 10 3 0 8 -4 11 -10z m281 -8 c0 -10 -6 -19 -13 -19 -17 0 -17 24 0 30 6
3 12 6 12 6 1 1 1 -7 1 -17z m-224 1 c-6 -2 -10 -9 -7 -14 4 -5 -2 -6 -11 -2
-12 4 -15 3 -10 -5 5 -8 2 -10 -10 -5 -14 5 -13 8 7 19 13 7 29 13 34 13 6 0
4 -3 -3 -6z m271 -24 c-3 -12 0 -25 7 -29 7 -4 9 -13 6 -19 -14 -21 -23 -11
-24 29 -1 22 2 40 7 40 5 0 7 -9 4 -21z m-1394 -27 c-53 -34 -150 -84 -155
-80 -4 5 179 108 190 108 6 0 -10 -13 -35 -28z m1361 8 c0 -13 -12 -19 -26
-13 -21 8 -17 22 6 20 11 -1 20 -4 20 -7z m182 -1 c17 -9 18 -13 7 -20 -21
-13 -29 -11 -29 9 0 13 -2 14 -9 4 -7 -11 -9 -11 -14 2 -8 19 14 21 45 5z
m-228 -15 c8 -21 8 -24 -5 -24 -5 0 -7 5 -4 10 3 6 1 10 -4 10 -6 0 -11 5 -11
10 0 16 17 12 24 -6z m-357 -9 c0 -8 -4 -12 -9 -9 -5 3 -6 10 -3 15 9 13 12
11 12 -6z m116 -30 c-7 -21 -13 -19 -13 6 0 11 4 18 10 14 5 -3 7 -12 3 -20z
m74 5 c-1 -11 -5 -20 -9 -20 -3 0 -6 9 -5 20 1 11 5 20 9 20 3 0 6 -9 5 -20z
m-227 0 c0 -5 -5 -10 -11 -10 -5 0 -7 5 -4 10 3 6 8 10 11 10 2 0 4 -4 4 -10z
m315 -17 c-15 -14 -35 -10 -35 7 0 5 7 6 17 3 11 -4 14 -3 9 5 -5 8 -2 10 8 6
14 -5 14 -8 1 -21z m-390 -1 c-3 -3 -11 0 -18 7 -9 10 -8 11 6 5 10 -3 15 -9
12 -12z m144 -8 c5 12 10 15 14 9 9 -15 -18 -35 -40 -31 -10 2 -19 12 -21 23
-4 20 -4 20 12 0 15 -19 15 -19 10 5 l-5 25 12 -25 c10 -23 12 -24 18 -6z
m294 2 c4 -10 1 -13 -9 -9 -7 3 -14 9 -14 14 0 14 17 10 23 -5z m-3583 -26 c0
-11 -7 -20 -15 -20 -8 0 -15 9 -15 20 0 11 7 20 15 20 8 0 15 -9 15 -20z
m3185 10 c3 -5 1 -10 -4 -10 -6 0 -11 5 -11 10 0 6 2 10 4 10 3 0 8 -4 11 -10z
m-1055 -4 c0 -2 -8 -10 -17 -17 -16 -13 -17 -12 -4 4 13 16 21 21 21 13z
m1025 -6 c3 -5 1 -10 -4 -10 -6 0 -11 5 -11 10 0 6 2 10 4 10 3 0 8 -4 11 -10z
m-37 -9 c10 -6 8 -10 -9 -14 -28 -7 -46 2 -28 14 17 11 21 11 37 0z m12 -35
c0 -2 -7 -6 -15 -10 -8 -3 -15 -1 -15 4 0 6 7 10 15 10 8 0 15 -2 15 -4z m-53
-17 c-9 -6 -15 -14 -12 -20 7 -10 -22 -25 -31 -16 -8 8 29 45 46 46 11 0 11
-2 -3 -10z m-130 -25 c-3 -3 -12 -4 -19 -1 -8 3 -5 6 6 6 11 1 17 -2 13 -5z
m-97 -54 c8 -5 11 -10 5 -10 -5 0 -17 5 -25 10 -8 5 -10 10 -5 10 6 0 17 -5
25 -10z m-36 -25 c-10 -8 -23 -15 -28 -15 -6 0 -1 7 10 15 10 8 23 15 28 15 6
0 1 -7 -10 -15z m-79 -14 c3 -5 2 -12 -3 -15 -5 -3 -9 1 -9 9 0 17 3 19 12 6z
m34 -23 c1 6 6 12 11 12 7 0 7 -7 0 -21 -9 -16 -14 -18 -25 -9 -8 6 -11 19 -8
27 6 14 8 14 14 -3 4 -10 8 -13 8 -6z m-72 -4 c-3 -3 -12 -4 -19 -1 -8 3 -5 6
6 6 11 1 17 -2 13 -5z m-142 -42 c-3 -3 -11 0 -18 7 -9 10 -8 11 6 5 10 -3 15
-9 12 -12z m-231 -148 c3 -8 2 -12 -4 -9 -6 3 -10 10 -10 16 0 14 7 11 14 -7z
m-1730 -8 c-3 -8 -12 -17 -21 -20 -13 -5 -13 -9 -2 -24 13 -15 12 -16 -3 -3
-16 12 -22 9 -20 -10 1 -4 -8 -5 -18 -2 -23 6 -27 -12 -5 -21 8 -3 15 -11 14
-18 0 -10 -2 -10 -6 0 -2 6 -14 12 -25 12 -15 0 -18 -5 -14 -16 5 -13 3 -14
-6 -7 -28 20 -47 8 -63 -41 -4 -15 -8 -17 -17 -8 -18 18 -27 14 -20 -10 3 -14
1 -19 -6 -14 -6 3 -17 -1 -25 -9 -12 -11 -17 -12 -21 -2 -4 6 -4 2 -2 -10 3
-19 1 -20 -15 -10 -10 6 -22 8 -26 4 -4 -5 -2 -11 4 -15 7 -5 7 -11 -3 -20
-12 -11 -14 -9 -14 9 l0 22 -19 -21 c-10 -12 -21 -19 -25 -15 -3 3 -6 1 -6 -6
0 -7 -4 -10 -9 -7 -14 9 -21 -20 -8 -35 8 -9 6 -9 -7 1 -25 20 -44 21 -50 3
-3 -8 -11 -11 -17 -7 -8 4 -9 -1 -5 -17 6 -20 5 -21 -4 -6 -8 13 -16 15 -29 7
-10 -5 -21 -6 -25 -3 -3 3 -6 1 -6 -6 0 -7 -4 -9 -10 -6 -5 3 -10 1 -10 -5 0
-7 -8 -9 -22 -5 -17 6 -20 4 -14 -10 5 -15 4 -16 -9 -5 -10 8 -15 9 -15 1 0
-6 -3 -10 -7 -10 -22 4 -43 -2 -39 -10 4 -5 -3 -7 -14 -4 -15 4 -20 0 -21 -13
0 -16 -1 -17 -7 -3 -5 12 -13 14 -29 8 -13 -5 -23 -13 -23 -20 0 -7 -9 -9 -24
-5 -31 8 -58 -2 -49 -18 4 -6 -1 -5 -10 3 -14 11 -17 11 -18 0 0 -10 -2 -10
-5 -2 -3 7 -11 10 -17 8 -35 -12 -83 -18 -187 -20 l-115 -3 100 8 c191 14 378
65 574 154 125 57 337 180 441 255 30 21 56 40 57 40 1 1 0 -5 -3 -13z m26
-21 c11 -13 10 -14 -4 -9 -9 3 -16 10 -16 15 0 13 6 11 20 -6z m1693 -60 c-3
-9 -8 -14 -10 -11 -3 3 -2 9 2 15 9 16 15 13 8 -4z m54 9 c-3 -3 -12 -4 -19
-1 -8 3 -5 6 6 6 11 1 17 -2 13 -5z m-45 -46 c-9 -4 -11 -7 -4 -7 14 -1 17
-31 2 -31 -5 0 -9 5 -7 12 1 6 -6 14 -16 16 -15 3 -18 0 -12 -17 5 -16 2 -21
-10 -21 -11 0 -15 5 -12 14 3 7 0 19 -6 25 -9 9 -8 11 6 6 9 -4 17 -2 17 4 0
6 7 8 15 5 9 -4 18 1 21 11 5 13 8 14 15 3 5 -8 2 -15 -9 -20z m-35 -72 c0 -8
-8 -11 -19 -8 -10 2 -18 7 -18 11 0 4 8 7 18 8 10 1 19 -4 19 -11z m-3440
-130 c51 -20 98 -36 105 -36 6 0 9 -3 5 -6 -3 -3 -21 -1 -40 5 -19 7 -43 13
-53 15 -10 3 -35 11 -54 19 -19 8 -38 16 -42 17 -39 9 -48 14 -48 21 0 5 -6 9
-13 9 -8 0 -27 11 -43 25 -29 26 -29 26 31 -3 33 -16 102 -46 152 -66z m3290
-8 c-3 -8 -6 -5 -6 6 -1 11 2 17 5 13 3 -3 4 -12 1 -19z m-49 -59 c-3 -8 -7
-3 -11 10 -4 17 -3 21 5 13 5 -5 8 -16 6 -23z m-3081 10 c15 -6 89 -21 163
-34 74 -13 122 -24 105 -24 -48 -1 -237 35 -275 52 -40 18 -35 22 7 6z m4336
-14 c-3 -8 -9 -15 -15 -15 -5 0 -6 5 -3 10 3 6 0 10 -7 10 -10 0 -9 3 2 9 18
12 31 5 23 -14z m27 -20 c0 -8 -2 -15 -4 -15 -2 0 -6 7 -10 15 -3 8 -1 15 4
15 6 0 10 -7 10 -15z m48 -10 c-3 -3 -9 2 -12 12 -6 14 -5 15 5 6 7 -7 10 -15
7 -18z m102 -5 c-11 -21 -30 -19 -30 3 0 8 3 8 9 -1 7 -11 9 -11 14 2 4 9 9
16 12 16 3 0 1 -9 -5 -20z m102 -5 c-8 -16 -9 -16 -15 -1 -4 10 -3 15 3 11 6
-3 10 -1 10 6 0 7 3 10 6 6 3 -3 2 -13 -4 -22z m-77 -41 c-10 -8 -21 -11 -24
-8 -3 3 2 10 12 15 12 7 16 18 12 32 -5 20 -4 20 7 -2 10 -20 9 -25 -7 -37z
m140 26 c3 -6 -1 -7 -9 -4 -10 4 -16 1 -16 -7 0 -7 -3 -10 -6 -6 -7 7 4 27 16
27 5 0 12 -4 15 -10z m-72 -71 c-7 -7 -19 -8 -30 -4 -16 8 -16 9 5 12 13 3 20
9 16 16 -5 8 -2 8 7 0 10 -10 10 -16 2 -24z m112 -29 c-3 -5 -10 -10 -16 -10
-5 0 -9 5 -9 10 0 6 7 10 16 10 8 0 12 -4 9 -10z m25 -20 c0 -5 -4 -10 -10
-10 -5 0 -10 5 -10 10 0 6 5 10 10 10 6 0 10 -4 10 -10z m-1876 -16 c3 -8 2
-12 -4 -9 -6 3 -10 10 -10 16 0 14 7 11 14 -7z m1871 -14 c3 -5 2 -10 -4 -10
-5 0 -13 5 -16 10 -3 6 -2 10 4 10 5 0 13 -4 16 -10z m-1355 -36 c0 -3 -7 -1
-15 6 -8 7 -15 17 -15 22 0 5 7 3 15 -6 8 -8 15 -18 15 -22z m1457 1 c0 -17
-32 -21 -42 -5 -3 5 0 7 8 4 8 -3 18 -1 22 5 9 15 12 14 12 -4z m-5905 -13
c-7 -2 -12 -8 -12 -14 0 -6 7 -7 16 -4 9 4 13 2 8 -5 -4 -8 1 -9 16 -4 13 4
20 3 17 -2 -3 -5 9 -9 27 -8 28 2 33 -1 28 -17 -2 -10 1 -18 7 -18 7 0 9 5 6
10 -3 6 3 10 13 10 11 0 23 -7 26 -16 3 -8 10 -13 15 -10 5 3 12 -2 15 -11 6
-14 9 -15 15 -4 10 16 31 6 31 -15 0 -8 5 -12 10 -9 6 3 10 -2 11 -12 0 -14 2
-14 9 5 5 12 12 22 15 22 4 0 3 -4 0 -10 -3 -5 3 -10 14 -10 19 0 25 -10 24
-46 0 -6 6 -11 13 -11 8 0 14 4 14 9 0 5 7 2 16 -7 9 -8 13 -22 10 -30 -3 -9
1 -16 9 -16 28 -3 33 -4 40 -11 4 -3 -4 -5 -18 -4 -18 2 -24 -1 -20 -10 3 -8
9 -12 13 -9 5 3 10 -1 13 -7 3 -10 7 -10 17 -1 9 8 16 7 31 -5 10 -8 16 -19
14 -22 -3 -4 6 -6 19 -5 19 2 23 -1 19 -16 -4 -14 0 -19 16 -19 11 0 21 -5 21
-11 0 -6 6 -9 14 -6 9 4 17 -1 19 -11 3 -12 5 -11 6 5 0 12 6 25 13 29 7 4 8
3 4 -4 -9 -15 12 -54 25 -47 5 4 7 11 4 16 -9 13 9 11 23 -3 15 -15 16 -32 2
-23 -5 3 -10 1 -10 -4 0 -6 14 -11 30 -11 22 0 33 -6 41 -22 9 -23 9 -23 5 -1
-3 16 1 21 14 20 10 -1 17 -4 14 -8 -2 -4 4 -13 13 -20 15 -12 16 -11 11 9 -4
15 -2 22 8 22 8 0 14 -8 15 -17 0 -15 2 -15 9 2 5 11 9 14 9 6 1 -11 4 -11 16
-1 14 12 15 10 11 -13 -3 -19 0 -27 10 -27 9 0 12 5 8 11 -3 6 5 4 18 -5 14
-9 28 -13 33 -9 4 5 5 -6 2 -24 -4 -18 -2 -35 3 -38 6 -4 7 1 3 12 -6 15 -5
16 9 5 14 -11 16 -10 11 7 -6 23 -3 24 21 15 14 -5 14 -9 4 -22 -11 -13 -10
-15 6 -9 10 4 25 2 33 -5 11 -9 16 -9 24 3 8 12 10 12 18 -1 7 -10 6 -17 -2
-23 -7 -5 -3 -7 11 -4 13 3 21 3 18 0 -3 -3 -1 -14 5 -25 9 -16 13 -17 27 -6
12 8 11 5 -3 -11 -11 -14 -15 -21 -8 -18 6 4 15 2 20 -5 4 -7 24 -14 43 -15
67 -2 75 -6 32 -12 -109 -18 -366 56 -605 175 -155 77 -416 251 -507 339 -41
40 -85 78 -98 84 l-23 12 23 19 c13 10 27 15 32 12 6 -3 5 -7 -2 -10z m315
-104 c-3 -8 -6 -5 -6 6 -1 11 2 17 5 13 3 -3 4 -12 1 -19z m33 -18 c0 -5 -5
-10 -11 -10 -5 0 -7 5 -4 10 3 6 8 10 11 10 2 0 4 -4 4 -10z m3430 -30 c0 -4
-12 -5 -26 -2 -17 3 -22 7 -13 12 13 9 39 2 39 -10z m-3220 -170 c8 -5 11 -10
5 -10 -5 0 -17 5 -25 10 -8 5 -10 10 -5 10 6 0 17 -5 25 -10z m147 -59 c1 -14
-3 -17 -17 -14 -15 4 -16 8 -7 19 16 18 23 17 24 -5z m36 -2 c-8 -8 -13 -7
-18 2 -5 8 -4 10 3 5 7 -4 12 -2 12 5 0 7 3 9 7 6 4 -4 2 -12 -4 -18z m4360
-227 c9 -2 17 3 17 9 0 7 9 4 21 -7 17 -15 23 -16 27 -5 3 9 6 10 12 2 3 -7
29 -13 56 -15 27 -3 49 -5 49 -6 0 -9 320 5 373 16 12 2 22 1 22 -4 0 -4 21
-8 48 -8 81 0 154 -14 183 -35 20 -14 29 -16 32 -7 4 9 8 10 14 3 8 -11 52
-25 138 -45 56 -13 88 -26 126 -52 14 -10 29 -15 32 -12 3 4 9 -5 13 -20 5
-23 21 -32 47 -27 5 1 6 -3 3 -8 -4 -5 2 -9 11 -9 10 0 27 -3 37 -7 14 -6 17
-5 12 3 -8 14 17 5 52 -18 21 -14 33 -70 15 -70 -5 0 -42 19 -83 41 -270 147
-427 191 -793 220 -232 19 -404 4 -647 -56 -102 -25 -214 -55 -250 -67 -97
-31 -523 -245 -626 -315 -88 -59 -154 -98 -154 -90 0 3 19 17 43 33 102 69
183 129 190 141 5 8 12 11 18 8 5 -3 6 1 3 10 -5 13 -2 15 21 9 20 -5 26 -4
21 5 -4 6 -1 11 8 11 9 0 16 6 17 13 0 9 2 9 5 0 4 -9 11 -9 29 -1 14 6 22 15
19 19 -3 5 2 6 10 3 12 -5 16 1 16 21 0 25 3 27 34 23 19 -2 33 -1 30 3 -2 4
8 15 23 24 23 16 25 16 20 1 -9 -23 28 -13 133 39 63 30 85 46 85 60 0 12 15
30 38 44 20 13 37 31 37 39 0 8 6 12 14 9 8 -3 25 2 38 12 29 23 123 52 143
44 8 -3 15 -1 15 5 0 5 18 8 40 6 22 -2 42 1 45 6 3 5 20 6 39 3 21 -3 36 -1
41 7 4 7 10 8 14 4 3 -5 14 -10 24 -12z m-3839 -31 c-2 -3 -12 3 -22 13 -16
17 -16 18 5 5 12 -7 20 -15 17 -18z m1163 -53 c-3 -8 -6 -5 -6 6 -1 11 2 17 5
13 3 -3 4 -12 1 -19z m568 2 c3 -6 -1 -7 -9 -4 -18 7 -21 14 -7 14 6 0 13 -4
16 -10z m-597 -101 c-7 -5 -16 -3 -20 4 -6 9 -8 9 -8 0 0 -7 -5 -13 -11 -13
-8 0 -9 4 0 13 6 8 7 17 3 21 -4 4 6 2 21 -5 19 -9 24 -15 15 -20z m83 -12
c-10 -9 -11 -8 -5 6 3 10 9 15 12 12 3 -3 0 -11 -7 -18z m135 -12 c-3 -8 0
-15 6 -15 6 0 9 -3 5 -6 -10 -11 -26 6 -20 21 3 8 7 15 10 15 3 0 3 -7 -1 -15z
m-222 -6 c-2 -4 0 -10 6 -14 5 -3 10 -14 9 -23 0 -12 -3 -11 -9 6 -5 12 -13
22 -17 23 -4 0 -16 2 -25 4 -10 2 -20 -5 -23 -16 -5 -15 -9 -16 -19 -7 -20 19
3 36 46 35 20 -1 35 -4 32 -8z m133 -13 c0 -8 -6 -12 -15 -9 -11 5 -11 7 0 14
7 5 13 9 14 9 0 0 1 -6 1 -14z m-60 -2 c-3 -3 -12 -4 -19 -1 -8 3 -5 6 6 6 11
1 17 -2 13 -5z m152 -37 c0 -9 -2 -8 -6 1 -2 6 -10 9 -15 6 -7 -4 -8 -2 -4 5
9 13 26 5 25 -12z m2509 -605 c7 -1 11 -6 7 -11 -3 -6 7 -9 22 -7 16 1 27 7
26 13 -1 6 6 9 17 6 11 -3 20 -9 20 -13 0 -4 9 -10 20 -13 12 -3 18 -1 14 5
-8 12 16 29 29 21 5 -3 5 -8 -1 -12 -15 -9 1 -31 26 -36 19 -3 21 -1 13 14 -7
13 -6 18 4 18 8 0 13 -5 12 -11 -1 -5 4 -10 11 -11 7 0 17 -7 22 -15 8 -12 10
-12 10 5 0 13 3 16 8 8 5 -8 13 -9 22 -3 8 6 22 10 30 9 9 0 5 -6 -10 -14
l-25 -14 25 -2 c18 -1 20 -3 7 -6 -18 -5 -18 -5 0 -18 10 -7 14 -17 10 -21 -4
-5 -12 -2 -17 6 -6 9 -10 10 -10 3 0 -18 19 -26 34 -14 10 9 15 8 20 -4 3 -9
2 -14 -2 -11 -4 2 -8 -5 -9 -17 0 -12 1 -16 4 -9 3 6 9 12 14 12 4 0 6 -6 3
-14 -3 -8 -38 -18 -97 -26 -139 -18 -206 -30 -230 -41 -17 -7 -12 -8 18 -3
225 34 281 41 355 43 119 2 452 -56 595 -104 62 -21 197 -86 192 -92 -3 -2
-20 5 -40 16 -54 30 -213 82 -231 75 -9 -3 -27 1 -41 10 -15 10 -24 12 -23 5
5 -21 -20 -21 -27 0 -8 27 -31 27 -31 1 0 -13 5 -19 13 -16 7 3 13 1 13 -3 0
-5 -7 -11 -15 -15 -8 -3 -15 -1 -15 4 0 6 -7 10 -16 10 -8 0 -13 -4 -10 -9 3
-5 -3 -20 -14 -32 -14 -17 -18 -19 -14 -6 5 13 1 17 -17 17 -19 0 -21 -2 -9
-10 13 -8 11 -11 -7 -16 -14 -4 -20 -11 -16 -21 5 -12 1 -14 -16 -8 -14 4 -23
2 -27 -9 -3 -9 -14 -16 -23 -16 -14 0 -14 -2 -1 -10 13 -8 13 -10 -2 -10 -9 0
-20 5 -23 10 -10 15 -25 2 -26 -23 -1 -17 -2 -18 -6 -5 -3 12 -12 16 -26 14
-12 -2 -33 4 -47 13 -24 15 -24 15 -10 -3 12 -16 12 -19 -3 -28 -10 -5 -14
-14 -11 -20 5 -8 1 -9 -10 -5 -14 6 -17 3 -12 -10 6 -15 5 -16 -5 -5 -16 15
-33 16 -23 0 5 -8 2 -9 -9 -5 -12 5 -17 1 -17 -13 0 -10 -5 -22 -11 -26 -8 -5
-10 1 -7 20 3 14 1 26 -3 26 -5 0 -9 -9 -9 -19 0 -25 -60 -57 -72 -39 -6 10
-8 10 -8 1 0 -7 -8 -13 -17 -13 -15 0 -16 -2 -3 -10 9 -6 17 -5 21 2 4 7 9 6
14 -2 6 -10 9 -10 15 0 5 9 9 9 14 1 4 -6 4 -11 -1 -12 -4 0 -19 -3 -33 -5
-14 -3 -40 -5 -57 -6 -32 -2 -32 -2 -16 -22 10 -12 11 -15 3 -8 -19 16 -33 15
-27 -3 8 -19 -5 -26 -23 -14 -12 7 -12 9 -1 9 8 0 11 6 7 16 -3 8 -2 12 4 9 6
-3 10 -2 10 4 0 5 -21 9 -47 9 -31 0 -42 -3 -32 -9 8 -5 23 -9 34 -10 17 -1
17 -2 3 -6 -10 -2 -18 -9 -18 -14 0 -6 -16 -9 -35 -8 -27 3 -42 -3 -66 -24
-17 -15 -40 -27 -50 -27 -26 0 -32 -2 -45 -14 -13 -12 -8 -30 6 -21 9 6 23
-25 15 -33 -3 -3 -5 1 -5 8 0 7 -3 10 -7 7 -3 -4 -11 -3 -17 3 -7 5 -17 5 -24
1 -19 -11 78 -40 113 -34 19 4 26 2 21 -6 -5 -7 1 -11 14 -11 12 0 18 -4 15
-10 -3 -5 -21 -10 -40 -10 -52 0 -354 -66 -436 -96 -346 -125 -747 -331 -1008
-518 -202 -144 -448 -292 -686 -409 -119 -59 -413 -187 -470 -204 -27 -8 -115
-40 -195 -70 -80 -31 -179 -61 -220 -69 -106 -19 -554 -19 -680 1 -116 17
-338 80 -440 125 -111 48 -274 142 -370 214 -239 180 -361 320 -493 566 -52
98 -95 195 -64 145 6 -11 25 -32 40 -47 38 -37 246 -174 327 -215 122 -62 388
-172 476 -197 261 -75 599 -104 824 -72 187 27 379 64 475 92 50 14 100 28
112 31 13 3 20 9 18 14 -3 4 -17 4 -31 -1 -14 -6 -23 -6 -20 -1 3 5 -1 12 -10
15 -9 4 -14 9 -11 13 4 3 14 0 23 -8 16 -13 17 -11 11 21 -4 19 -13 40 -21 45
-9 7 -11 17 -5 33 6 15 5 21 -1 17 -6 -3 -10 -13 -10 -21 0 -8 -4 -14 -10 -14
-10 0 -3 27 12 46 5 7 2 16 -7 24 -11 9 -15 9 -15 1 0 -8 -4 -8 -14 1 -12 11
-12 14 0 21 8 4 19 5 26 1 7 -4 8 -3 4 4 -4 7 -19 12 -34 13 -15 0 17 13 70
30 146 44 230 79 444 189 262 134 304 163 490 342 34 33 56 47 67 43 9 -4 13
-13 10 -22 -5 -12 -7 -12 -14 -1 -6 9 -9 7 -9 -9 0 -13 5 -21 13 -19 6 1 9 1
5 -1 -5 -3 -8 -11 -8 -19 0 -8 -5 -14 -11 -14 -5 0 -7 -5 -3 -12 5 -8 11 -5
17 10 6 12 14 22 19 22 5 0 4 -8 -1 -18 -7 -14 -5 -18 10 -20 42 -4 49 -6 49
-12 0 -18 29 -4 35 17 3 14 10 21 16 17 8 -4 7 -9 -2 -15 -7 -4 -11 -11 -7
-14 6 -7 43 11 66 33 7 6 18 12 23 12 6 0 7 4 4 10 -3 5 -1 18 5 27 11 17 11
17 6 1 -11 -36 19 -23 176 75 26 17 45 34 42 38 -3 5 1 6 8 4 8 -3 23 4 35 15
12 11 25 20 29 20 4 0 30 17 58 38 28 22 67 47 86 57 19 10 37 21 40 24 6 7
18 14 154 88 56 30 108 61 117 69 9 8 52 30 95 48 44 18 114 50 156 69 42 20
105 45 140 56 35 11 117 38 182 61 66 22 125 39 132 36 9 -3 11 1 7 11 -5 12
-2 15 10 10 9 -3 17 -3 17 1 0 6 62 9 98 4z m2630 -39 c2 -13 -4 -26 -16 -32
-24 -13 -32 -5 -32 31 0 25 4 29 23 26 14 -2 23 -11 25 -25z m-2253 -33 c3 -5
2 -10 -4 -10 -5 0 -13 5 -16 10 -3 6 -2 10 4 10 5 0 13 -4 16 -10z m-2146
-599 c-13 -11 -28 -20 -34 -21 -5 0 4 11 20 24 36 29 49 25 14 -3z m1896 18
c11 -16 1 -19 -13 -3 -7 8 -8 14 -3 14 5 0 13 -5 16 -11z m-144 -76 c13 -16
12 -17 -3 -4 -10 7 -18 15 -18 17 0 8 8 3 21 -13z m-1728 -57 c4 -10 1 -13 -9
-9 -15 6 -19 23 -5 23 5 0 11 -7 14 -14z m37 -1 c0 -8 -4 -15 -10 -15 -5 0 -7
7 -4 15 4 8 8 15 10 15 2 0 4 -7 4 -15z m2865 -334 c-3 -6 -11 -8 -17 -5 -6 4
-5 9 3 15 16 10 23 4 14 -10z m-4108 -197 c-3 -3 -12 -4 -19 -1 -8 3 -5 6 6 6
11 1 17 -2 13 -5z m-38 -8 c-7 -7 -121 -35 -114 -28 3 4 25 12 48 19 44 12 73
16 66 9z m161 -106 c8 -5 11 -10 5 -10 -5 0 -17 5 -25 10 -8 5 -10 10 -5 10 6
0 17 -5 25 -10z m0 -34 c0 -2 -7 -7 -16 -10 -8 -3 -12 -2 -9 4 6 10 25 14 25
6z"/>
<path d="M8112 7064 c-7 -8 -18 -12 -23 -8 -6 3 -5 -3 3 -15 7 -12 16 -21 20
-21 5 0 8 -10 8 -23 0 -13 4 -27 9 -32 5 -6 11 -19 14 -30 4 -15 5 -13 6 8 1
25 23 38 34 20 2 -5 2 -2 1 5 -2 6 5 12 16 12 11 0 20 7 20 15 0 8 -7 15 -16
15 -8 0 -13 -4 -10 -9 6 -10 -24 -25 -32 -16 -3 3 0 5 7 5 13 0 5 49 -12 65
-7 7 -8 6 -4 -1 4 -6 -1 -20 -9 -30 -15 -18 -15 -18 -11 8 5 35 -4 50 -21 32z
m35 -86 c-3 -8 -6 -5 -6 6 -1 11 2 17 5 13 3 -3 4 -12 1 -19z"/>
<path d="M8181 7044 c0 -11 3 -14 6 -6 3 7 2 16 -1 19 -3 4 -6 -2 -5 -13z"/>
<path d="M8205 7030 c-3 -5 -1 -10 4 -10 6 0 11 5 11 10 0 6 -2 10 -4 10 -3 0
-8 -4 -11 -10z"/>
<path d="M8230 7011 c0 -6 5 -13 10 -16 6 -3 10 1 10 9 0 9 -4 16 -10 16 -5 0
-10 -4 -10 -9z"/>
<path d="M8240 6966 c7 -7 13 -7 20 0 6 6 3 10 -10 10 -13 0 -16 -4 -10 -10z"/>
<path d="M8395 6950 c3 -5 8 -10 11 -10 2 0 4 5 4 10 0 6 -5 10 -11 10 -5 0
-7 -4 -4 -10z"/>
<path d="M8301 6934 c0 -11 3 -14 6 -6 3 7 2 16 -1 19 -3 4 -6 -2 -5 -13z"/>
<path d="M8247 6920 c3 -11 7 -20 9 -20 2 0 4 9 4 20 0 11 -4 20 -9 20 -5 0
-7 -9 -4 -20z"/>
<path d="M7921 6876 c3 -22 -1 -37 -8 -33 -5 3 -8 -8 -9 -25 -1 -16 2 -24 6
-18 6 9 9 9 13 -1 3 -8 5 -6 5 6 0 11 4 34 10 51 8 24 7 31 -4 31 -8 0 -14 -5
-13 -11z"/>
<path d="M8077 6883 c-4 -6 -1 -18 7 -26 8 -8 12 -17 9 -21 -4 -3 -2 -6 4 -6
6 0 13 9 16 21 4 15 2 19 -8 15 -8 -3 -15 2 -17 12 -2 12 -6 13 -11 5z"/>
<path d="M8141 6853 c-1 -17 16 -25 25 -12 4 7 3 9 -4 5 -5 -3 -13 0 -15 6 -4
9 -6 10 -6 1z"/>
<path d="M8050 6800 c0 -11 7 -23 15 -26 8 -4 12 -10 9 -15 -3 -5 2 -6 10 -3
23 9 20 24 -5 24 -16 0 -19 4 -14 20 4 11 2 20 -4 20 -6 0 -11 -9 -11 -20z"/>
<path d="M8120 6810 c-9 -6 -10 -10 -3 -10 6 0 15 5 18 10 8 12 4 12 -15 0z"/>
<path d="M7933 6780 c-13 -5 -23 -15 -23 -21 0 -8 4 -8 15 1 8 7 24 10 36 7
16 -4 18 -3 8 9 -6 8 -12 14 -13 13 0 0 -11 -4 -23 -9z"/>
<path d="M8120 6780 c-13 -8 -12 -10 3 -10 9 0 17 5 17 10 0 12 -1 12 -20 0z"/>
<path d="M7570 6761 c12 -9 13 -13 2 -20 -11 -6 -10 -9 3 -15 13 -4 16 -1 13
16 -2 12 -10 23 -18 25 -13 4 -13 3 0 -6z"/>
<path d="M8038 6753 c7 -3 16 -2 19 1 4 3 -2 6 -13 5 -11 0 -14 -3 -6 -6z"/>
<path d="M7935 6741 c3 -6 -3 -15 -12 -21 -17 -11 -17 -11 0 -6 10 3 21 6 23
6 2 0 4 7 4 15 0 8 -5 15 -11 15 -5 0 -8 -4 -4 -9z"/>
<path d="M7990 6739 c0 -5 5 -7 10 -4 6 4 13 -7 16 -25 4 -17 9 -29 11 -26 10
10 -9 66 -23 66 -8 0 -14 -5 -14 -11z"/>
<path d="M8097 6743 c-10 -10 -8 -53 2 -53 5 0 7 9 4 21 -4 12 0 25 8 30 8 5
9 9 3 9 -6 0 -14 -3 -17 -7z"/>
<path d="M7493 6725 c0 -8 4 -12 9 -9 4 3 8 9 8 15 0 5 -4 9 -8 9 -5 0 -9 -7
-9 -15z"/>
<path d="M7949 6693 c-13 -17 -13 -17 6 -3 11 8 22 16 24 17 2 2 0 3 -6 3 -6
0 -17 -8 -24 -17z"/>
<path d="M7465 6690 c3 -5 8 -10 11 -10 2 0 4 5 4 10 0 6 -5 10 -11 10 -5 0
-7 -4 -4 -10z"/>
<path d="M6995 6550 c3 -5 11 -10 16 -10 6 0 7 5 4 10 -3 6 -11 10 -16 10 -6
0 -7 -4 -4 -10z"/>
<path d="M6655 6340 c3 -5 14 -10 23 -10 15 0 15 2 2 10 -20 13 -33 13 -25 0z"/>
<path d="M6530 6189 c0 -5 5 -7 10 -4 6 3 10 8 10 11 0 2 -4 4 -10 4 -5 0 -10
-5 -10 -11z"/>
<path d="M7381 5944 c0 -11 3 -14 6 -6 3 7 2 16 -1 19 -3 4 -6 -2 -5 -13z"/>
<path d="M7210 5940 c0 -5 5 -10 11 -10 5 0 7 5 4 10 -3 6 -8 10 -11 10 -2 0
-4 -4 -4 -10z"/>
<path d="M7276 5933 c-6 -14 -5 -15 5 -6 7 7 10 15 7 18 -3 3 -9 -2 -12 -12z"/>
<path d="M7205 5910 c-3 -6 1 -7 9 -4 18 7 21 14 7 14 -6 0 -13 -4 -16 -10z"/>
<path d="M7627 5866 c-4 -10 -1 -13 8 -9 8 3 12 9 9 14 -7 12 -11 11 -17 -5z"/>
<path d="M7843 5777 c3 -10 2 -17 -3 -17 -6 0 -10 -4 -10 -10 0 -5 6 -10 13
-10 16 0 20 37 5 46 -7 5 -9 1 -5 -9z"/>
<path d="M6645 5750 c-4 -6 -11 -7 -17 -4 -7 4 -8 2 -4 -5 6 -9 11 -9 22 0 14
11 18 19 10 19 -3 0 -8 -5 -11 -10z"/>
<path d="M6423 5670 c-12 -17 -11 -18 9 -11 12 4 24 14 26 22 3 12 2 12 -6 0
-6 -9 -11 -10 -13 -2 -2 6 -9 3 -16 -9z"/>
<path d="M8087 5646 c-3 -8 0 -17 8 -20 10 -3 12 0 8 11 -5 12 -3 14 7 8 9 -5
11 -4 6 3 -10 16 -23 15 -29 -2z"/>
<path d="M6375 5640 c-3 -6 1 -7 9 -4 18 7 21 14 7 14 -6 0 -13 -4 -16 -10z"/>
<path d="M5906 5582 c-3 -6 -1 -14 5 -17 15 -10 25 3 12 16 -7 7 -13 7 -17 1z"/>
<path d="M8240 5580 c-9 -6 -10 -10 -3 -10 6 0 15 5 18 10 8 12 4 12 -15 0z"/>
<path d="M5838 5493 c7 -3 16 -2 19 1 4 3 -2 6 -13 5 -11 0 -14 -3 -6 -6z"/>
<path d="M5776 5457 c3 -10 9 -15 12 -12 3 3 0 11 -7 18 -10 9 -11 8 -5 -6z"/>
<path d="M4483 5105 c-3 -9 -3 -18 -1 -21 3 -3 8 4 11 16 6 23 -1 27 -10 5z"/>
<path d="M4387 4974 c5 -13 3 -15 -7 -9 -9 5 -11 4 -6 -3 4 -7 11 -12 17 -12
12 0 12 27 -1 35 -6 4 -7 -1 -3 -11z"/>
<path d="M4361 4912 c-1 -7 -5 -11 -9 -8 -5 3 -9 -1 -9 -8 0 -8 6 -12 14 -9 7
3 13 -1 13 -8 0 -7 2 -10 5 -7 3 3 1 16 -4 29 -5 13 -10 18 -10 11z"/>
<path d="M4353 4845 c0 -8 4 -12 9 -9 5 3 6 10 3 15 -9 13 -12 11 -12 -6z"/>
<path d="M4753 4805 c0 -8 6 -16 14 -19 11 -4 11 -1 3 14 -13 24 -17 25 -17 5z"/>
<path d="M4520 4762 c0 -5 7 -9 15 -9 8 0 12 4 9 9 -3 4 -9 8 -15 8 -5 0 -9
-4 -9 -8z"/>
<path d="M4563 4755 c0 -8 4 -12 9 -9 4 3 8 9 8 15 0 5 -4 9 -8 9 -5 0 -9 -7
-9 -15z"/>
<path d="M4623 4733 c9 -2 23 -2 30 0 6 3 -1 5 -18 5 -16 0 -22 -2 -12 -5z"/>
<path d="M2401 5554 c0 -11 3 -14 6 -6 3 7 2 16 -1 19 -3 4 -6 -2 -5 -13z"/>
<path d="M3138 5143 c7 -3 16 -2 19 1 4 3 -2 6 -13 5 -11 0 -14 -3 -6 -6z"/>
<path d="M7328 4173 c7 -3 16 -2 19 1 4 3 -2 6 -13 5 -11 0 -14 -3 -6 -6z"/>
<path d="M7485 4139 c-4 -6 -5 -12 -2 -15 2 -3 7 2 10 11 7 17 1 20 -8 4z"/>
<path d="M7166 3974 c-26 -9 -46 -17 -44 -19 2 -2 31 4 63 14 33 11 53 19 45
19 -8 1 -37 -6 -64 -14z"/>
<path d="M7980 3909 c0 -5 5 -7 10 -4 6 3 10 8 10 11 0 2 -4 4 -10 4 -5 0 -10
-5 -10 -11z"/>
<path d="M6797 3846 c-53 -22 -79 -36 -65 -36 7 0 132 51 137 56 10 10 -19 2
-72 -20z"/>
<path d="M6635 3775 c-27 -13 -43 -24 -35 -24 8 0 35 11 60 24 58 31 41 31
-25 0z"/>
<path d="M7575 3710 c3 -5 8 -10 11 -10 2 0 4 5 4 10 0 6 -5 10 -11 10 -5 0
-7 -4 -4 -10z"/>
<path d="M5399 3477 c6 -8 7 -18 3 -22 -4 -5 -2 -5 5 -1 14 8 6 36 -9 36 -7 0
-6 -5 1 -13z"/>
<path d="M7054 3449 c-3 -6 -3 -13 0 -16 3 -4 6 -1 6 5 0 6 11 9 27 6 15 -3
25 -3 22 1 -12 11 -49 14 -55 4z"/>
<path d="M7126 3451 c-3 -4 6 -7 21 -5 14 1 37 -2 52 -7 19 -7 23 -7 15 1 -13
13 -81 22 -88 11z"/>
<path d="M4420 2816 c0 -2 8 -10 18 -17 15 -13 16 -12 3 4 -13 16 -21 21 -21
13z"/>
<path d="M4475 2770 c3 -5 8 -10 11 -10 2 0 4 5 4 10 0 6 -5 10 -11 10 -5 0
-7 -4 -4 -10z"/>
<path d="M4496 2718 c3 -4 9 -8 15 -8 5 0 9 4 9 8 0 5 -7 9 -15 9 -8 0 -12 -4
-9 -9z"/>
<path d="M2888 2663 c7 -3 16 -2 19 1 4 3 -2 6 -13 5 -11 0 -14 -3 -6 -6z"/>
<path d="M2928 2652 c-9 -2 -19 -10 -22 -18 -5 -12 -2 -12 17 -3 20 11 21 11
9 -4 -12 -14 -10 -17 12 -23 15 -3 37 -4 51 -2 24 5 31 -12 10 -22 -6 -3 -3
-13 9 -24 16 -16 18 -16 13 -3 -3 9 -2 19 3 22 6 4 10 -1 10 -9 0 -9 5 -16 11
-16 5 0 7 -4 4 -10 -3 -5 1 -10 9 -10 8 0 18 5 22 12 4 6 3 8 -3 5 -6 -4 -17
0 -24 9 -11 14 -8 15 27 8 21 -4 41 -10 44 -13 6 -8 69 -6 97 3 21 7 23 36 2
36 -4 0 -5 -7 -2 -17 4 -11 3 -14 -5 -9 -7 4 -12 2 -12 -6 0 -7 -5 -5 -11 6
-9 15 -13 16 -21 5 -7 -10 -7 -7 -3 9 3 12 3 22 -2 22 -4 0 -42 7 -83 16 -41
9 -87 16 -102 15 -15 -1 -31 5 -35 12 -4 7 -15 11 -25 9z"/>
<path d="M2949 2573 c-13 -16 -12 -17 4 -4 9 7 17 15 17 17 0 8 -8 3 -21 -13z"/>
<path d="M3278 2570 c-3 -9 4 -23 20 -34 22 -17 25 -17 19 -3 -4 11 -1 17 9
17 11 0 14 -6 9 -22 -5 -20 -4 -21 5 -5 15 24 3 40 -25 33 -17 -4 -24 -1 -27
11 -3 15 -5 15 -10 3z"/>
<path d="M3102 2545 c4 -4 4 -13 0 -19 -5 -6 -5 -22 -1 -36 4 -16 7 -19 8 -8
1 10 12 20 26 24 14 3 25 10 25 16 0 5 4 7 9 3 5 -3 12 -1 16 5 3 5 -3 10 -14
10 -12 0 -21 -5 -21 -10 0 -6 -12 -3 -27 7 -16 9 -25 13 -21 8z m18 -25 c0 -5
-5 -10 -11 -10 -5 0 -7 5 -4 10 3 6 8 10 11 10 2 0 4 -4 4 -10z"/>
<path d="M3243 2535 c0 -8 4 -12 9 -9 4 3 8 0 8 -6 0 -6 5 -8 10 -5 6 3 10 1
10 -5 0 -6 5 -8 12 -4 8 5 5 11 -10 17 -12 6 -22 14 -22 19 0 4 -4 8 -8 8 -5
0 -9 -7 -9 -15z"/>
<path d="M3357 2531 c-4 -17 -3 -21 5 -13 5 5 8 16 6 23 -3 8 -7 3 -11 -10z"/>
<path d="M2976 2523 c-6 -14 -5 -15 5 -6 7 7 10 15 7 18 -3 3 -9 -2 -12 -12z"/>
<path d="M3207 2529 c-9 -6 -15 -14 -12 -20 4 -5 13 -2 22 6 19 20 14 27 -10
14z"/>
<path d="M3061 2501 c13 -11 26 -17 29 -14 6 6 -30 33 -43 33 -5 0 1 -9 14
-19z"/>
<path d="M3131 2486 c-9 -10 -7 -17 5 -27 15 -12 16 -11 10 8 -5 16 -2 23 11
26 15 4 15 5 2 6 -9 0 -22 -5 -28 -13z"/>
<path d="M3200 2479 c0 -5 5 -7 10 -4 6 3 10 8 10 11 0 2 -4 4 -10 4 -5 0 -10
-5 -10 -11z"/>
<path d="M3080 2450 c0 -5 7 -10 16 -10 8 0 12 5 9 10 -3 6 -10 10 -16 10 -5
0 -9 -4 -9 -10z"/>
<path d="M3195 2399 c-4 -6 -5 -12 -2 -15 2 -3 7 2 10 11 7 17 1 20 -8 4z"/>
</g>
</svg>
